<?xml version="1.0" encoding="utf-8"?>
<!-- Generator: Adobe Illustrator 27.8.0, SVG Export Plug-In . SVG Version: 6.00 Build 0)  -->
<svg version="1.1" id="Calque_1" xmlns="http://www.w3.org/2000/svg" xmlns:xlink="http://www.w3.org/1999/xlink" x="0px" y="0px"
	 viewBox="0 0 595.3 841.9" style="enable-background:new 0 0 595.3 841.9;" xml:space="preserve">
<style type="text/css">
	.st0{fill:#D2A78E;}
	.st1{fill:#B59788;}
	.st2{fill:#93857F;}
	.st3{fill:#9E9191;}
</style>
<g>
	<path class="st0" d="M258.2,288.3c0,7.6,0,7.5,7.2,4.6c11.2-4.5,22.9-7.5,34.9-6.9c11.2,0.6,22.4,2.9,32.7,7.9
		c3.6,1.8,5.2,1.3,4.8-3c-0.2-2.3-0.1-4.7,0-7c0-1.1-0.3-2.5,1.5-2.5c1.6,0,1.9,1.1,2,2.4c0.3,3.3,0.6,6.6,0.7,10
		c0.1,3.4,1.1,6,4.3,7.7c2.2,1.1,4,3,6,4.4c0.8,0.6,2.1,1.5,2.5,1.3c4.8-3.5,6.2,1.3,8.8,3.4c0.8,0.6,1.7,1.7,1,2.5
		c-2.7,3-0.2,4.7,1.3,6.7c24,30.8,24.2,73.8,0.6,104.9c-1.6,2.1-4.6,3.8-2,7.6c1.3,1.9-5.7,7.8-7.8,6.5c-1.9-1.2-2.8-0.4-4.3,0.5
		c-7.5,4.2-12.2,9.9-10.7,19.1c0.1,0.6-0.1,1.3-0.3,2c-0.3,1.4,0.2,3.4-2,3.4c-2.4,0-1.5-2.2-1.6-3.4c-0.2-2.3-0.2-4.7,0-7
		c0.3-3.6-1-3.8-4-2.4c-15.9,7.4-32.5,9.4-49.7,6.8c-7.8-1.2-15.3-3.5-22.3-6.9c-3-1.5-3.8-0.7-3.6,2.4c0.2,2.7,0,5.3,0,8
		c0,1.1,0.2,2.6-1.5,2.7c-1.5,0.1-1.9-1.1-2-2.3c-0.3-3.5-0.6-7-0.7-10.4c-0.1-3.2-1.2-5.6-4.3-7.2c-2.2-1.1-4-2.9-6-4.4
		c-0.9-0.6-1.6-1.6-3-1.4c-6.2,1.1-9.5-2.1-8-7.8c0.5-2-1-2.7-1.8-3.7c-13.8-17.5-20-37.4-18.6-59.6c1.1-17.6,7.3-33.3,18.1-47.3
		c1.4-1.8,3.6-3.3,1.2-6.3c-1.3-1.6,5.4-8.3,7.1-7.1c3,2.1,4.3-0.2,6.4-1.3c7.3-3.6,10.1-9.4,9.3-17.3c-0.1-1.1,0.2-2.3,0.3-3.5
		c0.1-1.4,0.4-2.8,2.3-2.6c1.7,0.2,1.2,1.8,1.2,2.8C258.3,285.7,258.2,287,258.2,288.3z M379.7,373c0.2-45.2-36.1-82-81.3-82
		c-44.5-0.1-81.6,34.8-82.1,81.3c-0.4,45.2,36,81.8,81.4,82C343,454.4,379.5,418.2,379.7,373z"/>
	<path class="st0" d="M298,259.9c10,0,20,0.1,29.9-0.1c3.2-0.1,4.4,0.8,4.3,4.2c-0.2,6.8-0.1,13.6,0,20.5c0.1,3-0.7,3.7-3.7,2.6
		c-8.8-3.3-17.9-5.2-27.3-5.1c-11.4,0.1-22.8,0.9-33.5,5.1c-3.6,1.4-3.9,0-3.8-3c0.1-6.6,0.2-13.3,0-20c-0.1-3.2,0.9-4.3,4.2-4.3
		C278,260,288,259.9,298,259.9z"/>
	<path class="st0" d="M264.4,485.2c-1.2-9-0.2-18.1-0.5-27.6c14.5,4.4,28.5,7.2,43.1,5.6c7.5-0.8,14.7-2.5,21.8-4.9
		c1.8-0.6,3.4-1.3,3.3,1.6c-0.2,8.4,0.7,16.9-0.5,25.3C309.2,484.8,286.8,484.8,264.4,485.2z"/>
	<path class="st1" d="M379.7,373c-0.2,45.2-36.7,81.4-81.9,81.3c-45.4-0.2-81.8-36.7-81.4-82c0.4-46.6,37.5-81.4,82.1-81.3
		C343.5,291,379.8,327.8,379.7,373z M376.8,372.7c0-43.5-35.3-78.7-78.8-78.8c-43.5,0-78.9,35.2-78.9,78.7c0,43.3,35.5,78.9,78.8,79
		C341.1,451.7,376.9,416,376.8,372.7z"/>
	<path class="st2" d="M376.8,372.7c0,43.2-35.7,79-78.9,78.9c-43.3-0.1-78.8-35.7-78.8-79c0-43.4,35.4-78.7,78.9-78.7
		C341.5,294,376.8,329.2,376.8,372.7z M350.9,318.8L350.9,318.8c2.4-1.9-0.1-2.7-1-3.5c-12.6-11.3-27.4-17.9-44.2-19.5
		c-7.9-0.8-15.6,0.2-23.5,1.5c-14.5,2.5-26.3,9.4-37.1,18.8c-1.1,1-2.4,2.2,0,3.3l0.1-0.1c-2.1-1.5-2.3-1.5-4.8,1.5
		c-16.1,18.8-22.3,40.3-18.5,64.8c6.4,41,46.4,71.8,92.1,62.6c38.8-7.8,65.4-44.4,60.9-83.9c-1.9-16.6-8.4-31.4-19.7-43.8
		C354.2,319.5,353.4,316.8,350.9,318.8z"/>
	<path class="st3" d="M264.4,372c7.8,0.3,15.6-1.2,23.4-0.2c2.5,0.3,4.1-0.4,5.8-2.6c1.6-2.2,3.7-5.7,7.4-1.7c3.4,3.7,4,6.5,1.1,9.4
		c-2.7,2.6-6.3,2.4-8.9-1.3c-1.6-2.3-3.5-1.9-5.6-1.9c-7.7,0.1-15.4,0-23.1,0C264.4,373.1,264.4,372.6,264.4,372z M298.2,376.6
		c2.2-0.4,3.8-1.5,3.7-3.8c0-2.5-1.5-4-4.1-4c-2.6,0.1-3.9,1.8-3.8,4.2C294.2,375.4,295.9,376.5,298.2,376.6z"/>
	<path class="st3" d="M350.9,318.8c-0.5,5.4-5.4,7-8.8,9.9C344.2,324.6,347.3,321.4,350.9,318.8C351,318.9,350.9,318.8,350.9,318.8z
		"/>
	<path class="st3" d="M253.9,416.8c-2.1,3.7-4.7,6.8-8.6,8.5C247.1,421.4,250.2,418.8,253.9,416.8z"/>
	<path class="st3" d="M350.6,425.2c-3.8-1.9-6.6-4.8-8.7-8.3C346.1,418.3,348.4,421.7,350.6,425.2z"/>
	<path class="st0" d="M245.2,319.4c3.8,2.1,6.4,5.3,8.6,9.1C250.5,325.8,246.2,324.2,245.2,319.4
		C245.3,319.4,245.2,319.4,245.2,319.4z"/>
	<path class="st0" d="M298.7,339.7c0,7.2,0,14.5,0,21.7c-0.5,0-1,0-1.4,0c0-7.2,0-14.5,0-21.7C297.8,339.7,298.2,339.7,298.7,339.7z
		"/>
	<path class="st3" d="M230.1,371.9c1.5,0.9,5.2-1.5,5.2,1.4c0,2.9-3.7,1.1-5.8,1.6c-0.6,0.1-1.3,0.1-2,0c-1.6-0.1-3.9,0.4-3.8-1.8
		c0-2.1,2.3-0.9,3.6-1.2C228.1,371.7,228.9,371.9,230.1,371.9z"/>
	<path class="st3" d="M298.7,339.7c-0.5,0-1,0-1.4,0c0-4.7,0-9.4,0-14C299.1,330.4,298.8,335.1,298.7,339.7z"/>
	<path class="st0" d="M297.9,298.5c1.4,3.8,1.2,7.6-0.1,11.5C297,306.2,296.7,302.4,297.9,298.5z"/>
	<path class="st0" d="M297.9,446.7c-0.9-3.8-1.3-7.6,0.2-11.3C298.9,439.1,299.4,442.9,297.9,446.7z"/>
	<path class="st0" d="M370.8,372.7c-3.2,0-6.3,0-9.5,0C364.5,371.6,367.7,371.7,370.8,372.7z"/>
</g>
</svg>
