<svg height="auto" viewBox="0 0 2000 1000" xmlns="http://www.w3.org/2000/svg"><path d="M0 502.342c25-5.699 75 28.031 125-28.493 50-56.525 75-269.891 125-254.13 50 15.762 75 351.69 125 332.939 50-18.752 75-461.675 125-426.698 50 34.977 75 467.083 125 601.585 50 134.501 75 170.853 125 70.923s75-448.638 125-570.573c50-121.936 75-34.631 125-39.106 50-4.474 75 8.94 125 16.734 50 7.794 75-62.19 125 22.237 50 84.427 75 350.226 125 399.896 50 49.67 75-102.81 125-151.544 50-48.736 75-70.607 125-92.132 50-21.525 75 37.52 125-15.495 50-53.017 75-218.997 125-249.586 50-30.59 100 77.312 125 96.64V1000H0Z" fill="#fce3d9"/><path d="M0 502.342c25-5.699 75 28.031 125-28.493 50-56.525 75-269.891 125-254.13 50 15.762 75 351.69 125 332.939 50-18.752 75-461.675 125-426.698 50 34.977 75 467.083 125 601.585 50 134.501 75 170.853 125 70.923s75-448.638 125-570.573c50-121.936 75-34.631 125-39.106 50-4.474 75 8.94 125 16.734 50 7.794 75-62.19 125 22.237 50 84.427 75 350.226 125 399.896 50 49.67 75-102.81 125-151.544 50-48.736 75-70.607 125-92.132 50-21.525 75 37.52 125-15.495 50-53.017 75-218.997 125-249.586 50-30.59 100 77.312 125 96.64" fill="none"/></svg>