<svg height="auto" viewBox="0 0 2000 1000" xmlns="http://www.w3.org/2000/svg"><path d="M0 1000h177.778V614.615q0-20-20-20H20q-20 0-20 20ZM222.222 1000H400V592.937q0-20-20-20H242.222q-20 0-20 20ZM444.444 1000h177.778V330.057q0-20-20-20H464.444q-20 0-20 20ZM666.667 1000h177.777V673.908q0-20-20-20H686.667q-20 0-20 20ZM888.889 1000h177.778V129.786q0-20-20-20H908.889q-20 0-20 20ZM1111.111 1000h177.778V666.191q0-20-20-20H1131.11q-20 0-20 20ZM1333.333 1000h177.778V601.071q0-20-20-20h-137.778q-20 0-20 20ZM1555.556 1000h177.777V306.354q0-20-20-20h-137.777q-20 0-20 20ZM1777.778 1000h177.778V316.087q0-20-20-20h-137.778q-20 0-20 20Z"/></svg>