<svg height="auto" viewBox="0 0 2000 1000" xmlns="http://www.w3.org/2000/svg"><path d="m0 351.2 125 266.098 125 23.1 125-180.12 125-192.323L625 795.23l125-611.162 125 61.913 125 203.69 125 188.88 125-145.363 125 93.973 125 162.54 125-387.644 125 200.421 125 65.86 125-154.408V1000H0Z" fill="#fce3d91a"/><path d="m0 351.2 125 266.098 125 23.1 125-180.12 125-192.323L625 795.23l125-611.162 125 61.913 125 203.69 125 188.88 125-145.363 125 93.973 125 162.54 125-387.644 125 200.421 125 65.86 125-154.408" fill="none" stroke="#fce3d9" stroke-width="10"/><g fill="#fce3d9"><circle cy="351.201" r="14"/><circle cx="125" cy="617.298" r="14"/><circle cx="250" cy="640.398" r="14"/><circle cx="375" cy="460.278" r="14"/><circle cx="500" cy="267.955" r="14"/><circle cx="625" cy="795.23" r="14"/><circle cx="750" cy="184.068" r="14"/><circle cx="875" cy="245.981" r="14"/><circle cx="1000" cy="449.672" r="14"/><circle cx="1125" cy="638.551" r="14"/><circle cx="1250" cy="493.188" r="14"/><circle cx="1375" cy="587.161" r="14"/><circle cx="1500" cy="749.7" r="14"/><circle cx="1625" cy="362.057" r="14"/><circle cx="1750" cy="562.478" r="14"/><circle cx="1875" cy="628.339" r="14"/><circle cx="2000" cy="473.93" r="14"/></g></svg>